<?xml version="1.0" encoding="utf-8"?>
<!-- Generator: Adobe Illustrator 24.1.0, SVG Export Plug-In . SVG Version: 6.00 Build 0)  -->
<svg version="1.1" id="Layer_1" xmlns="http://www.w3.org/2000/svg" xmlns:xlink="http://www.w3.org/1999/xlink" x="0px" y="0px"
	 viewBox="0 0 733.5 669.2" style="enable-background:new 0 0 733.5 669.2;" xml:space="preserve">
<style type="text/css">
	.st0{opacity:0.9;}
	.st1{fill:#FFFFFF;}
</style>
<g class="st0">
	<path class="st1" d="M717,139c-0.1,0.2-0.2,0.5-0.2,0.7c-0.5,5.4-3.1,10.2-5,15.2c-5.8,14.7-11.9,29.3-17.8,43.9
		c-3,7.4-5.4,15.1-7.8,22.7c-0.9,2.9-2.1,5.7-3.1,8.6c-1.1,3.1-2.3,6.3-1.7,9.9c-1.3-0.4-1.8-1.4-2.2-2.3c-1.1-2.5-2.2-4.9-3.4-7.4
		c-1.2-2.6-3-4.6-5.6-6c-2.4-1.3-4.8-2.5-7.1-3.9c-2.9-1.7-5.2-3.7-6.2-7.2c-1.3-4.4-2.2-8.8-2.7-13.3c-0.6-5.7-1.1-11.3-1.7-17
		c-0.1-1.1-0.1-2.1-0.2-3.3c-1.1,0-1.4,0.8-1.8,1.5c-5.6,8.4-8.5,17.8-10.8,27.5c-1.4,5.9-2.7,11.8-3.9,17.6c-0.4,2-0.3,4.2-0.4,6.3
		c0,0.7,0,1.3,0.1,2c-0.9,0.6-1.7,0.1-2.3-0.3c-0.5-0.4-1-0.9-1.5-1.4c-1.8-1.7-3.5-3.6-5.4-5.2c-4.9-3.8-7.9-8.9-10-14.5
		c-0.5-1.4-1.1-2.9-1.7-4.5c-0.4,0.4-0.8,0.6-1,0.9c-2,2.2-4.1,4.3-6.1,6.5c-2.6,2.7-5,5.5-7.7,8.1c-2.1,2-4.4,3.8-6.7,5.6
		c-1.7,1.3-3.8,1.6-6,1.8c-1.5,0.2-3,0.2-4.5,0.3c-3.8,0.2-7.3-0.6-10.5-2.4c-2.4-1.4-4.7-2.9-7-4.5c-2-1.4-4.1-2.6-6.5-3.3
		c-6.5-2.1-9.8-7.1-10.7-13.5c-0.4-2.7-0.4-5.5-0.2-8.3c0.8-15.6,6.3-29.3,16.3-41.2c5.9-7,12.9-12.8,20.7-17.5c2-1.2,4-2.4,6.6-2.4
		c1,0,2.2-0.7,3.1-1.4c2.9-1.9,5.8-1.5,8.7-0.2c4.2,1.9,7.1,5.2,8.8,9.5s3.8,8.4,5.7,12.6c2.2,4.7,3.6,9.6,4.7,14.7
		c0.4,2,0.6,4,0.8,6.1c0.1,1.3,0.5,2.5,1.4,3.8c1-2.1,1.8-4.1,2.7-6c2.7-5.6,5.9-11,9.7-16c3-3.9,5.5-8,8.6-11.9
		c3-3.8,6.3-7.4,9.6-11c1.6-1.8,3.3-3.4,5-5c2.4-2.2,4.3-2.1,6.9-0.1c1.7,1.4,2.8,3.1,3.6,5.1c1.3,2.9,2.4,5.9,3.8,8.8
		c2.3,4.9,2.5,9.9,1.7,15.1c-0.6,3.4-0.2,6.8,0.5,10.1c0.1,0.5,0.5,0.9,1,1.8c0.6-1.1,1-1.7,1.5-2.4c5.5-9,10.9-18.1,16.6-27
		c2.6-4,5.8-7.5,8.9-11.1c1.7-1.9,3.6-3.7,6.3-4.1c3.3-0.5,5.8,1.4,5.9,4.2c0.1,1.5,0.2,2.9,0.4,4.4C717,138.8,717,138.9,717,139z
		 M572,208.4c1.8-1,3.7-1.9,5.5-3c5.5-3.5,10.5-7.7,15.1-12.3c2.7-2.6,5.1-5.5,6.6-8.9c2.3-5.1,4.1-10.4,5.1-16
		c0.9-4.9,0.4-9.9-0.3-14.8c-0.2-1.2-1.5-1.6-2.7-0.9c-4.2,2.3-8.2,4.9-11.4,8.6c-4.5,5.2-8.5,10.7-11.4,17
		c-2.5,5.5-4.3,11.3-5.8,17.1c-0.9,3.4-1.2,6.9-1.8,10.4C570.9,206.5,570.9,207.5,572,208.4z"/>
	<path class="st1" d="M589.4,523.5c0.5-0.8,0.7-1.1,0.8-1.5c4.2-8.2,9.3-15.7,15.1-22.9c2-2.5,3.9-5,5.9-7.5
		c4.2-5.4,8.9-10.4,13.9-15.1c0.2-0.2,0.4-0.4,0.6-0.5c2.2-1.8,3.9-1.8,6.3-0.1c2.3,1.7,3.5,4,4.5,6.6c0.5,1.2,0.8,2.5,1.4,3.6
		c1.5,2.7,2,5.7,2.4,8.7c0.8,6.5,1.3,13,1.5,19.4c0,0.9,0,1.8,1.2,2.3c0.3-0.4,0.7-0.7,0.9-1.2c2.8-5,5.8-9.9,8.4-15.1
		c4-8.1,9.1-15.4,15.4-21.9c1.5-1.5,3-2.9,4.7-4.2c0.9-0.8,2.1-1.3,3.2-1.7c3.3-1.3,6.4,0.7,6.8,4.2c0.3,3.6,0.3,7.2-1.2,10.8
		c-6.8,16.7-13.5,33.4-20.3,50.1c-3.4,8.5-6.4,17.3-9.1,26.1c-1,3.1-2.2,6.1-3.3,9.2c-1.1,3-2,6-1.5,9.5c-1.4-0.5-1.8-1.5-2.3-2.4
		c-1.2-2.5-2.3-5.1-3.5-7.6s-2.9-4.4-5.3-5.7c-2.5-1.3-4.9-2.6-7.3-4c-2.9-1.7-5.1-3.8-6.1-7.2c-1.5-5-2.4-10.1-2.9-15.3
		c-0.3-3.8-0.8-7.7-1.2-11.5c-0.2-1.7-0.2-3.4-0.3-5.1c0-0.5-0.1-1-0.2-2.1c-0.8,0.8-1.3,1.3-1.7,1.8c-5.7,8.5-8.7,18.2-10.9,28
		c-1.2,5.5-2.4,11-3.7,16.4c-0.6,2.4-1.6,4.7-2.5,7.2c-0.7-0.4-1.1-0.6-1.5-0.9c-2.8-2.2-5.7-4.2-8.3-6.5c-4.3-3.8-6.8-8.7-8.3-14.2
		c-0.2-0.7-0.3-1.3-0.6-2.3c-0.6,0.8-1.1,1.3-1.5,1.8c-5.1,6.3-10.7,12.2-17.3,17.2c-2.8,2.1-5.9,3.9-9.2,5.1
		c-0.4,0.2-0.9,0.3-1.3,0.5c-1.4,0.3-1.7,0.2-2.3-1.2c-0.1-0.2-0.2-0.5-0.3-0.8c-7,0.3-12.6-2.9-18.1-6.7c-1.7-1.2-3.7-1.9-5.5-2.9
		c-0.7-0.4-1.5-0.7-2.1-1.1c-0.9-0.7-1.8-1.5-2.7-2.1c-4.9-3.7-6.7-8.8-6.9-14.7c-0.2-5.5,1-10.8,2.3-16c2.3-8.9,6.2-17.1,11.6-24.5
		c4.8-6.7,10.9-12.3,17.6-17.1c3.1-2.2,6.4-4.4,9.6-6.5c0.8-0.5,1.7-0.6,2.6-1c1.1-0.4,2.3-0.8,3.3-1.4c3-2,6-1.5,8.9-0.1
		c4.9,2.3,7.6,6.5,9.6,11.4c0.9,2.3,1.9,4.6,3,6.9c2.2,4.4,4.2,8.8,5.3,13.6C587.5,515.3,588.4,519.2,589.4,523.5z M537.6,550.8
		c1.8-1,3.8-1.8,5.5-3.1c4.3-3.1,8.5-6.3,12.6-9.6c3-2.4,5.5-5.2,7.1-8.8c0.4-0.9,1-1.6,1.5-2.4c3.8-5.4,5.5-11.4,5.4-18
		c0-2,0-4.1,0-6.1c0-2.2,0-4.3-0.1-6.5c-0.1-1.5-1.3-2.2-2.7-1.4c-1.2,0.7-2.4,1.5-3.7,2.1c-2.4,1.2-4.5,2.7-6,5
		c-1.9,2.8-4.2,5.3-6.1,8.1c-4.6,7.1-8.3,14.6-11.3,22.5c-1.9,5-2.9,10.3-3.3,15.7C536.5,549.2,536.6,550,537.6,550.8z"/>
	<path class="st1" d="M643.6,359c-0.4,1.3-1,2-1.9,2.6c-2.2,1.6-4,3.6-5.8,5.7c-4.3,5-9.1,9.4-14.6,12.9c-6.9,4.4-14.6,5.5-22.7,4.2
		c-3.8-0.6-7.7-1.3-11.1-3.1c-5.4-2.8-10.8-5.6-16-8.8c-6-3.6-11.6-7.7-17-12.2c-3.9-3.3-7.2-7.2-10.3-11.2
		c-0.5-0.7-0.5-1.9-0.8-2.9c-1,0-1.2,0.9-1.3,1.6c-0.6,2.4-1.2,4.7-1.6,7.1c-1.3,6.9-2.8,13.8-5.5,20.4c-0.8,1.9-0.3,3.9,0.4,5.7
		c0.2,0.6,0.8,1.1,0.2,2c-0.3-0.2-0.7-0.3-1-0.6c-2-2.3-3.9-4.7-5.9-7c-3.5-4-7.5-7.4-12-10.3c-2.1-1.4-4.4-2.8-5.5-5.3
		c-0.7-1.5-1.3-3.2-1.4-4.8c-0.2-3.9,0.1-7.8,0.8-11.7c3.6-19.8,11.8-37.5,23.3-53.9c2.4-3.4,4.6-7,6.9-10.5
		c4.2-6.3,9-12.1,14.2-17.5c1.7-1.8,3.7-3.2,6.1-3.9c3.7-1.2,7.4-2.5,11.2-3.7c1.8-0.6,3.5-0.6,5,0.7c2,1.7,4.3,2,6.7,2.4
		c5.8,1.1,11.6,2.1,17.3,3.5c3.6,0.8,6.8,2.7,9.4,5.3c1,1,2.3,1.9,3.5,2.8c2.8,2,5.2,4.5,7.4,7.2c1.7,2,2.8,4.3,3.5,6.8
		c1,3.7,1.9,7.5,3,11.2c0.6,2,0.5,3.7-1.3,5c-1.5,1.1-1.8,2.6-1,4.3c0.3,0.6,0.2,1.5,0.1,2.1c-0.6,3.7-2.5,6.9-3.9,10.2
		c-1.7,4-4.6,6.8-8,9.2c-1.3,0.9-2.5,1.9-3.8,2.7c-1.8,1.1-3.5,2.4-5.4,3.3c-6.6,3.1-13.4,6-20.6,7.4c-2.5,0.5-5,0.7-7.4,1
		c-0.6,0.1-1.3,0.2-2,0.7c1.5,1.1,3.1,2.2,4.6,3.2c6.5,4.6,13.5,8.4,20.7,11.6c7.7,3.4,15.9,5.3,24.3,5.9c5.4,0.4,10.7-0.6,16-1.1
		C641.5,359.1,642.5,359.1,643.6,359z M555,311.4c1.7,0.3,3-0.2,4.3-0.7c3.6-1.5,7.3-2,11.1-1.9c7.8,0.2,14.9-2,21.6-5.9
		c2.5-1.5,4-3.8,5.7-6c0.2-0.3,0.3-0.6,0.3-0.9c-0.1-3.1-0.6-6.1-3.4-8c-2.5-1.8-5.3-3.1-8.2-3.8c-3.7-1-7.5-1.7-11.3-2.6
		c-2.8-0.6-5.5-1.2-8.6-1.9C561.7,289.8,557.9,300.3,555,311.4z"/>
	<path class="st1" d="M153.2,164.7c0.5,0.1,0.9,0.1,1.3,0.1c4.7,0.2,9.4,0.2,14,0.6c2.5,0.2,5.1,0.9,7.5,1.5
		c2.6,0.7,4.2,2.5,4.2,5.3c0,1.7,0,3.5-0.3,5.2c-0.2,1.8-1.7,2.8-3.3,3.2c-1.2,0.3-2.5,0.5-3.8,0.5c-8.2,0-16,2-23.8,4.1
		c-1,0.3-1.5,0.8-1.6,1.8c-0.4,2.3-0.9,4.6-1.3,7c-1.1,5.6-1.4,11.1-1.1,16.8c0,0.3,0.1,0.7,0.1,1.2c0.6-0.1,1.1-0.1,1.6-0.2
		c6-1.5,12-3.2,18.1-4.6c2.6-0.6,5.2-0.6,7.9-0.6c1,0,2.3,0.6,3.1,1.3c3.7,3.4,4.6,9.7-0.2,13.8c-1.3,1.1-2.8,2.1-4.4,2.9
		c-5.2,2.7-10.4,5.2-16.1,6.6c-2.8,0.7-5.5,0.8-8.3,0.7c-0.9-0.1-1.7,0-2.6,0c-0.1,0.6-0.2,1.1-0.3,1.6c-0.2-0.1-0.4-0.1-0.5-0.2
		c-2.2-2.8-4.8-5.1-7.5-7.4c-1.9-1.6-3.6-3.5-5.4-5.3c-1.2-1.2-2.4-2.4-3.4-3.8c-0.9-1.1-1.7-2.4-2.5-3.7c0,0-0.2-0.1-0.2,0
		c-2.2,2.4-4.9,4.2-7.6,6c-3.7,2.5-7.3,5.1-10.9,7.8c-1.9,1.5-3.9,2-6.3,1.5c-0.9-0.2-1.8-0.4-2.8-0.6c-4.2-0.9-7.7-2.9-10.7-5.9
		c-3.4-3.4-6.6-6.8-9-11c-1.5-2.6-3.2-5.2-4.8-7.8c-1.3-2.1-3.2-3.6-5.1-5.4c-0.3,0.6-0.6,0.9-0.6,1.2c-1.2,8.2-2.3,16.4-3.5,24.5
		c-0.3,2.3-0.7,4.5,0.1,6.8c-0.1,0.1-0.2,0.1-0.4,0.2c-0.4-0.2-0.8-0.4-1-0.6c-0.6-0.8-1.1-1.5-1.5-2.4c-1.2-2.4-3.1-4.2-5-6.1
		c-2.3-2.3-4.5-4.7-6.8-7c-0.2-0.2-0.4-0.6-0.7-0.8c-2.8-2.4-3.8-5.6-4.2-9.2c-0.8-7.1,0.4-13.9,2.3-20.7
		c3.9-14.2,9.3-27.7,16.9-40.4c3.6-5.9,7.2-11.8,10.8-17.7c0.6-1,1.3-1.4,2.4-1.5c2.2,0,4.3-0.2,6.5-0.2c1.6-0.1,2.8,0.8,3.7,1.9
		c1.8,2.1,3.9,3.5,6.4,4.4c1.8,0.7,3.5,1.5,5.2,2.3c6,2.6,11.2,6.4,16,10.6c5.8,5.2,7.5,11.8,6.5,19.4c-0.3,2.1-1,3.9-2.1,5.7
		c-0.2,0.4-0.5,0.8-0.7,1.2c-2.4,4.5-5.8,8.1-10.4,10.5c-5.5,2.9-10.8,6.2-16.3,9.2c-1.3,0.7-2,1.9-2.9,3.2c1.9,2.1,3.9,4.3,5.9,6.4
		c2.3,2.5,4.8,4.8,7.1,7.3c4.7,5,10.4,7.7,17.1,8.5c0.8,0.1,1.4-0.1,2-0.7c0.9-1,1.9-2,2.8-2.9c0.6-0.6,0.6-1.1,0.4-1.8
		c-1.9-6.5-1.6-13.1-0.3-19.7c1.6-8.2,4.6-16,7.5-23.8c2.1-5.6,4.2-11.2,7.3-16.3c2-3.2,4.2-6.3,6.5-9.3c1.3-1.8,3.1-2.7,5.4-2.9
		c0.7,0,1.3-0.2,2-0.4c7.4-2.3,15.1-2.6,22.8-2.1c1.5,0.1,2.9,0.6,4.3,1.1c0.9,0.3,1.7,0.9,2.3,1.6c1.1,1.1,1.9,2.3,2.9,3.4
		c0.9,1,1.3,2.2,1.1,3.6c-0.2,1.3-0.4,2.6-1,3.7c-0.4,0.8-1.4,1.6-2.2,1.9c-1.2,0.4-2.5,0.5-3.8,0.6c-6.8,0.6-13.6,1-20.2,3
		c-1.5,0.5-2.4,1.1-2.7,2.8c-0.4,2.3-1.1,4.6-1.7,6.9C153.3,163.6,153.3,164.1,153.2,164.7z M74.4,171.2c0.2,0,0.4,0,0.6-0.1
		c5.6-1.5,11.1-2.9,16.6-4.6c2.1-0.6,4.2-1.7,5.6-3.5c1.8-2.4,2.9-5.2,3.3-8.2c0.1-0.5,0.1-1.1-0.1-1.6c-1-2.3-2.4-4.3-4.9-5.2
		c-1.3-0.4-2.6-0.9-3.8-1.2c-2.5-0.7-5-1.1-7.5-1.9c-3.9-1.2-4.6-0.8-5.7,3.2c-1.9,6.8-4,13.6-6,20.5
		C72,170.2,72.6,171.2,74.4,171.2z"/>
	<path class="st1" d="M370.2,349.5c-3.4-1.9-6.5-3.7-9.7-5.5c-2.9-1.6-5.5-3.7-7.9-6.1c-3.7-3.6-6.9-7.5-9.3-12
		c-5.6-10.1-7.9-21-6.9-32.5c0.7-8.6,2.9-16.8,6.1-24.8c0.2-0.6,0.5-1.1,0.8-1.6c0.9-1.8,2.1-2.7,4.3-2.5c1.9,0.2,3.8-0.1,5.7-0.2
		c0.2,0,0.4,0,0.6-0.1c3.6-0.3,4.6-0.1,6.9,4c1.3,2.3,1.1,4.5-0.1,6.7c-1,1.9-1.3,3.9-1,6.1c0.9,5.6,2.2,11,4,16.4
		c2.1,6.5,5.8,11.9,10.6,16.6c4.6,4.5,10.1,7.8,15.3,11.6c0.4-0.5,0.6-0.9,0.9-1.2c4.2-6.6,7.1-13.7,9.4-21.1
		c2.9-9.3,4.4-18.9,3.8-28.7c-0.2-3,0-5.8,1.5-8.5c0.6-1.1,1.4-1.6,2.6-1.5c0.7,0.1,1.5,0.1,2.2,0.4c2.4,1.1,5,1.4,7.5,1.9
		c2.2,0.4,2.4,0.6,2.9,2.8c1,4.4,1.6,8.8,1.9,13.3c0.3,5.1,0.8,10.3,1,15.4c0.2,5-0.2,10-1.2,15c-0.4,1.8-0.4,3.8-0.5,5.6
		c-0.2,4.3-1,8.5-3.4,12.2c-0.9,1.5-1.4,3-1.8,4.7c-0.9,4.1-2.1,8.2-4.3,11.8c-3.8,6.2-7.5,12.4-11.7,18.3
		c-5.2,7.3-12.1,12.9-20,17.2c-4.5,2.5-9,4.7-13.9,6.2c-3,0.9-6,0.8-9,0.6c-4.8-0.4-8.4-2.8-11.7-6c-4.4-4.3-8.9-8.6-13.2-13
		c-3.6-3.7-6.5-8-8.9-12.6c-0.6-1.1-1.2-2.1-1.8-3.2c-0.5-0.8-0.6-1.6-0.2-2.5c0.5-1.3,1-2.6,1.5-3.8c1.2,0.1,1.2,0.9,1.4,1.5
		c1.3,4.2,3.3,8,5.4,11.8c1,1.7,2.2,2.8,4.2,3.2c4.3,0.8,8.6,0.7,12.8-0.8c8.2-3,15.3-7.8,21.8-13.5
		C369.3,350.6,369.7,350.1,370.2,349.5z"/>
	<path class="st1" d="M193.1,345.3c0.4,0.6,0.7,1.1,1.1,1.4c4.9,5.2,9.8,10.5,14.9,15.6c4.7,4.8,10.5,7.5,17.3,8.2
		c3.1,0.3,3.1,0.4,4.9-1.9c1.6,0.6,1.8,1.1,0.8,2.3c-1.8,2.1-4.2,3.6-6.5,5.2c-3.9,2.8-8,5.4-11.7,8.4c-2.6,2.1-5.4,2.5-8.4,1.9
		c-6.1-1.2-11.5-3.6-16-8.1c-3.6-3.6-7-7.2-9.8-11.3c-2.8-4-5.9-7.7-9.4-11.2c-0.3-0.3-0.6-0.5-1.2-1c-0.4,2.2-0.7,4.1-1,6
		c-1.1,7-2.1,13.9-3.2,20.9c-0.3,2.1-0.6,4.1,0,6.2c0.1,0.2,0,0.5-0.1,1.2c-0.6-0.5-1.2-0.8-1.5-1.2c-0.6-0.7-1.1-1.5-1.5-2.4
		c-1.3-2.8-3.4-5-5.8-7c-2.9-2.4-5.4-5.1-7.7-8.1c-0.2-0.3-0.4-0.6-0.7-0.8c-3.7-3.1-4.5-7.3-4.9-11.9c-0.7-9,0.9-17.7,2.8-26.4
		c1.5-6.6,4-13,6.3-19.3c2.5-6.7,5.4-13.3,8.2-19.9c2.4-5.5,6-10.3,9.9-14.8c2.3-2.7,4.7-5.4,7-8.2c0.6-0.7,1.1-1,2-1
		c2.2,0,4.5,0,6.7-0.2c2.4-0.3,4.1,0.5,5.6,2.2c1.9,2.2,4.2,3.8,6.9,4.8c2.2,0.9,4.3,1.9,6.5,2.9c6.7,3,12.6,7.2,18,12.1
		c6.5,5.8,8.2,13.2,7.4,21.6c-0.6,6.2-3.6,11.2-7.4,15.7c-2.1,2.5-4.9,4.5-7.6,6.4c-3.1,2.1-6.3,4-9.6,5.7c-3.6,1.9-7.4,3.5-11,5.2
		C194,344.8,193.6,345,193.1,345.3z M183.8,292.7c-3.4,8.9-6.1,17.7-8.4,26.5c1.2,1.1,2.4,1,3.6,0.7c3.7-1,7.3-2.1,11-2.9
		c4.5-1,8.3-3.2,12-5.8c1.6-1.1,2.5-2.5,2.5-4.4c0-2.6-0.6-5.1-2.8-6.7c-3.9-2.7-8-5.1-12.7-6.4
		C187.3,293.5,185.6,293.2,183.8,292.7z"/>
	<path class="st1" d="M472,283.9c-1,1.1-1.9,2.1-2.9,3c-1,0.8-1.8,1.6-2.2,2.8c-1.5,3.8-3.1,7.5-4.5,11.3c-0.8,1.9,0,2.8,2,2.6
		c2.6-0.2,5.3-0.5,7.9-0.7c5.7-0.4,11.4-0.5,17.1,0.3c5.8,0.7,11.2,2.4,16.5,4.9c2.9,1.4,4.4,3.5,3.8,6.8c-0.2,1.1-0.3,2.2-0.7,3.2
		c-0.8,2.1-2.2,3.5-4.6,3.8c-4.8,0.6-9.5,1.2-14.3,2.1c-6.9,1.3-13.7,2.7-20.5,4.3c-5.5,1.2-10.7,3.4-15.8,5.8c-0.9,0.4-1.3,1-1.4,2
		c-0.7,6.7-1.5,13.5-2.3,20.2c0,0.5,0,0.9,0.1,1.5c2.5,0.3,4.8-0.1,7.1-0.5c6.2-1.3,12.4-2.8,18.6-4.2c4.8-1.1,9.6-2.1,14.6-2.3
		c3-0.1,5.9,0.4,8.8,1.4c1.2,0.4,1.9,1.3,2.4,2.4c1.6,3.4,2.1,7,2,10.7c0,0.6-0.2,1.2-0.6,1.7c-2.8,3.3-5.9,6.1-9.9,7.9
		c-5.9,2.5-11.7,5.1-17.9,6.4c-5.3,1.1-10.6,1.3-16,1.3c-2,0-3.9,0.1-5.9,0c-1.7-0.1-3.4-0.4-5-0.6c-0.7-0.1-1.3-0.2-1.8,0.5
		c-0.6,0.9-1.5,0.8-2.3,0.3c-0.4-0.3-0.8-0.5-1.2-0.7c-3.1-1-5.1-3.2-6.8-5.8c-1.8-2.7-4.1-4.7-6.9-6.1c-2.5-1.2-3.5-3.5-4.3-5.9
		c-1.9-5.4-2.1-11-2-16.7c0.2-12.6,3.2-24.7,8.3-36.2c3.3-7.5,7.1-14.8,11.3-21.9c1.9-3.1,4-6.1,6.2-9c4.3-5.5,8.8-10.8,14-15.6
		c1.1-1,2.3-1.7,3.7-2c3.2-0.6,6.5-1.2,9.8-1.9c9.3-2,18.5-1.2,27.7,0.4c3.8,0.7,7.6,1.5,11.3,2.3c2.1,0.4,3.6,1.8,5.2,3.1
		c0.4,0.4,0.6,1.2,0.6,1.9c-0.1,2.6-0.3,5.3-0.6,7.9c-0.1,0.6-0.5,1.2-1,1.7c-1.6,1.5-3.6,2.4-5.9,2.5c-3.9,0.3-7.7,0.6-11.5,1
		c-4.6,0.5-9.3,1.1-13.9,1.8c-3.6,0.5-7.2,1.1-10.8,1.8C475,285.6,473.3,285.3,472,283.9z"/>
	<path class="st1" d="M308.6,391.6c-1.2-0.6-2.1-0.9-2.6-1.5c-1.9-1.8-3.6-3.6-5.4-5.5c-0.6-0.6-0.9-1.5-1.3-2.3
		c-1.6-3.4-3.6-6.5-6.7-8.8c-3.7-2.7-5.7-6.5-7.4-10.5c-0.6-1.4-0.8-3-0.7-4.6c0-2.8,0.4-5.7,0.6-8.5c0-0.5,0.1-0.9,0.1-1.5
		c-3.2-0.7-6.1-0.2-9,0.7c-4.2,1.4-8.4,2.6-12.6,3.9c-0.2,0.1-0.4,0.2-0.6,0.2c-2.5-0.1-3.4,1.4-4,3.6c-1.2,5.1-2.9,10.2-4.1,15.3
		c-1,4.6-1.8,9.3-0.9,14.1c0,0.2,0,0.4-0.1,0.9c-0.6-0.3-1.1-0.5-1.6-0.9c-1.6-1.2-3.2-2.5-4.9-3.6c-2.2-1.5-4.1-3.4-5.4-5.7
		c-0.6-1-1.4-1.7-2.4-2.4c-1.6-1.1-2.9-2.6-4.3-4c-2.8-2.8-3.6-6.4-4-10.2c-0.5-4.5,0-8.9,0.9-13.3c1.4-6.4,2.8-12.7,5.6-18.7
		c5.7-12.3,11.9-24.4,20.3-35.1c2.8-3.5,5.2-7.3,8-10.7c3.6-4.4,7.5-8.6,11.4-12.7c2.8-3,6-5.7,9.4-8.1c1.9-1.3,3.5-1.5,5.4-0.1
		c1.6,1.1,3.1,2.4,4.6,3.6c0.6,0.5,1,1.2,1.2,2c0.1,0.7,0.7,1.5,1.3,2c2.5,2.4,5,4.8,7.5,7.1c4,3.7,7.4,7.9,10.1,12.7
		c1.2,2.2,1.8,4.5,2,7c0.5,5.6,0.2,11.2-0.8,16.8c-0.8,4.7-1.2,9.4-1.9,14.1c-0.6,4-1.5,7.9-2.1,11.8c-1,6-2,12-2.9,18.1
		c-1,6.4-2,12.9-2.9,19.3c-0.4,2.5-0.7,5.1-0.8,7.7c-0.1,1.6,0.4,3.2,0.6,4.8C308.3,389.6,308.5,390.3,308.6,391.6z M290.4,326.2
		c0.2-0.6,0.4-1.1,0.5-1.6c1.7-5.4,3.4-10.8,5.2-16.2c2.1-6.4,4-12.8,5-19.5c0.5-3.2,0.7-6.4-1.1-9.3c-0.8-1.3-1.6-2.5-2.4-3.8
		c-0.6-0.9-1.2-1-2-0.3c-0.4,0.3-0.7,0.8-1,1.2c-1.2,1.8-2.3,3.7-3.5,5.5c-3.9,5.7-7.2,11.6-9.9,17.9c-3.4,7.9-6.4,16-8.9,24.2
		c-0.1,0.5-0.2,1-0.3,1.7C278,326.1,284.1,326.2,290.4,326.2z"/>
	<path class="st1" d="M75.1,555.3c-1.6-0.5-2.3-1.5-2.8-2.7c-0.8-1.9-1.7-3.7-2.4-5.6c-1-2.8-2.8-5-5-6.8c-3.1-2.6-4.5-5.9-4.7-9.8
		c-0.3-4.7,0.4-9.3,1.5-13.9c1-4.2,1.4-8.5,1.5-13.2c-0.4,0.3-0.7,0.4-0.7,0.6c-2.8,8-6.3,15.9-8.1,24.3
		c-2.5,11.4-4.4,22.9-5.9,34.5c-0.5,3.6-1.1,7.1-2,10.6c-0.6,2.3-1.7,4.6-2.7,6.8c-0.9,1.9-1.8,3.8-1.2,6c0.2,0.6-0.1,1.2-0.3,2.2
		c-0.9-0.7-1.5-1.1-2-1.6c-0.6-0.6-1.1-1.4-1.6-2.1c-4-5.7-8-11.4-12-17.1c-1.9-2.7-3.5-5.6-4.4-8.9c-0.1-0.3-0.2-0.7-0.1-1
		c0.8-4.9,1.3-9.8,2.4-14.6c1.5-6.2,2.9-12.5,6-18.3c0.5-1,1-2,1.5-2.9c4.8-8.3,9.1-17,15-24.6c3.8-4.9,7.9-9.5,11.9-14.2
		c0.3-0.3,0.5-0.6,0.8-0.9c2.3-2.3,4.5-2.2,6.2,0.5c1,1.6,2.3,2.8,3.7,4c3.9,3.5,6.7,7.8,9,12.5c0.3,0.6,0.6,1.2,1,2.1
		c0.5-0.6,0.8-0.9,1-1.3c3.8-6,8.8-10.8,14.5-14.9c2.6-1.9,5.6-2.2,8.6-3c0.5-0.1,1.4,0.2,1.8,0.6c1.1,0.9,2.2,1.8,3.1,3
		c2.3,3.1,4.5,6.3,6.6,9.5c1,1.5,1.5,3.2,1.4,5c-0.1,1.2,0.2,2.4,0.2,3.6c0.1,6.1-0.8,12.1-3.1,17.9c-2.1,5.2-3.3,10.6-4.4,16
		c-1.2,6.5-2,13.1-2.7,19.7c-0.7,6.9-1.9,13.8-2.9,20.7c-0.2,1.5,0,2.9,0,4.4c0,0.8,0,1.7-0.1,2.5c-0.1,0-0.3,0.1-0.4,0.1
		c-0.3-0.3-0.6-0.7-0.8-1c-1.2-2.5-2.6-5.1-3.7-7.7c-1.2-3-2.9-5.5-5.5-7.4c-3-2.2-5.2-5.1-6.1-8.7c-0.7-2.8-0.9-5.8-0.8-8.7
		c0.2-6.4,0.8-12.9,2.3-19.1c0.9-3.5,2-7,3-10.5c1.3-4.5,2.6-9.1,3.7-13.7c-5,7-9.2,14.5-12.9,22.3C79.1,538.4,77,546.8,75.1,555.3z
		"/>
	<path class="st1" d="M59.5,356.8c0.5-10.7,2.2-19.9,4.6-29.1c1.5-5.7,3.7-11,6-16.4c3.2-7.7,6.5-15.4,11.3-22.3
		c4.4-6.4,9.2-12.4,15.1-17.5c0.9-0.8,2-1.1,3.1-1.1c0.4,0,0.8,0,1.2,0.1c3.5,0.9,7.1,0.5,10.6,0c0.4,0,1,0.3,1.4,0.5
		c0.7,0.5,1.3,1.4,2.1,1.8c5.3,3,10.7,5.9,16.1,8.7c4.1,2.2,7.7,5.1,11,8.3c2.7,2.5,4.2,5.8,5.5,9.4c2,5.8,1.2,11.2-1.2,16.6
		c-3.3,7.5-9.1,12.6-16.2,16.2c-4.1,2-8.3,3.6-12.4,5.5c-3.5,1.5-6.9,3.1-10.3,4.8c-4.9,2.5-9.7,5.1-14.6,7.6
		c-1.1,0.6-1.7,1.3-1.9,2.6c-1.4,7.3-3,14.6-3.7,22c-0.3,3.5-1.8,6.6-2.7,10c-0.4,1.6-0.7,3.3-1.1,4.9c-0.1,0.5-0.4,1.2-0.8,1.5
		c-0.7,0.4-1.2-0.1-1.7-0.7c-1.4-1.8-2.9-3.6-4.3-5.3c-1.9-2.3-3.8-4.6-5.8-6.8c-2.2-2.4-4.6-4.6-6.8-7c-2-2.2-3.6-4.5-3.8-7.6
		C60,360.8,59.7,358.2,59.5,356.8z M100.9,316.8c1.6,1,3,0.9,4.3,0.7c5.4-0.9,10.7-2.2,15.5-5.2c2.9-1.8,4.3-5,3.5-8.3
		c-1.1-4.1-3.5-7.4-7-9.6c-2.6-1.7-5.6-2.9-8.5-4.3c-1.1-0.5-2.1,0.2-2.4,1.4c-1.3,5.7-2.6,11.3-3.8,17
		C101.8,311.2,101.3,314,100.9,316.8z"/>
	<path class="st1" d="M151.7,101.5c-2.6-1.8-4.5-3.8-5.3-6.5c-1-3.3-1.8-6.7-2.5-10c-0.4-1.7-0.8-3.3-1.7-4.7
		c-1.2-1.8-1.6-4-1.9-6.1c-0.7-4.8,0-9.4,0.8-14.1c0-0.2,0-0.4,0-0.7c-2.9-0.3-5.5,0.8-7.9,2c-0.5,0.2-0.8,1.1-0.9,1.7
		c-0.8,3.7-1.6,7.3-2.1,11c-0.7,5.5-1.2,11.1-1.8,16.6c-0.3,2.9-0.7,5.8-0.4,8.7c0.1,0.9,0.2,1.9,0.3,2.8c-1.1,0-1.6-0.8-2.1-1.5
		c-2.6-3.5-4.1-7.4-5.2-11.6c-0.8-3.1-1.9-6.1-2.9-9.1c-1.6-5.1-1.9-10.2-0.7-15.4c1.8-8,4.5-15.6,7.7-23.1
		c2.8-6.5,5.4-13.1,8.2-19.8c-0.4,0-0.6-0.1-0.7,0c-5.2,3-11,4.6-16.9,5.3c-1.1,0.1-1.7,0.5-2.1,1.5c-4.1,9.4-7.7,19-9.9,29
		c-1.1,5-2.5,10-3.5,15c-1,5.3-1.5,10.7-2.2,16.1c-0.5,3.8-0.4,7.7-1.5,11.5c-0.2,0.7,0,1.5,0.1,2.2c0,0.5,0,1,0,1.5
		c-0.2,0.1-0.3,0.1-0.5,0.2c-0.3-0.4-0.7-0.8-0.8-1.2c-1.7-6.3-3.5-12.7-4.9-19.1c-0.9-4.2-1.4-8.6-1.8-12.9
		c-0.2-2.1,0.2-4.2,0.5-6.2c2.3-12.1,5.9-23.8,11.1-35c0.1-0.2,0.2-0.5,0.3-0.9c-1.9-0.2-3.7-0.2-5.5-0.5c-2.7-0.5-5.4-1.1-8.1-1.7
		c-1.1-0.2-2.1-0.4-3.2-0.5c-2.7-0.3-4.1-2.2-3.4-4.8c0.3-1,0.8-2,1.4-2.9c2.2-3.1,4.3-6.3,8.2-7.6c0.9-0.3,2-0.5,3-0.5
		c3.6,0.1,7.2,0.2,10.8,0.5c6.7,0.6,13.2-0.1,19.9-0.8c2.4-0.3,4.9-0.1,7.3,0.1c2,0.1,3.1,1.5,3.7,3.3c0.2,0.5,0.4,1,0.6,1.7
		c1.2-0.8,2.2-1.5,3.4-2.2c2.5-1.6,4.9-1.2,7,0.8c0.7,0.7,0.9,1.4,0.6,2.4c-2.4,7.6-4.7,15.1-7,22.7c-0.2,0.6-0.4,1.3-0.6,2
		c2.7,0.4,5.1,0.2,7.5-0.6c1.2-0.4,2.1-1.1,2.6-2.3c1.6-3.7,3.3-7.3,4.9-10.9c1.2-2.9,2.3-5.8,3.5-8.6c0.4-0.9,0.7-1.8,1.1-2.6
		c1.4-2.8,4.2-3.2,6.5-1c1.8,1.8,2.5,4,3,6.3c0.1,0.4-0.2,0.9-0.3,1.3c-1.7,4.6-3.6,9.1-4.9,13.8c-3.1,10.9-5.7,22-7.5,33.3
		c-1.2,7.8-2.2,15.6-3.4,23.3c-0.4,2.7,0.4,5.2,0.5,7.9C151.6,100.6,151.6,100.9,151.7,101.5z"/>
	<path class="st1" d="M187.9,581.7c-0.2-1-0.4-1.7-0.4-2.4c-0.1-2.6-1.3-4.8-2.6-6.9c-1.3-2-2.5-4-3.9-5.9c-1.2-1.6-2.5-3-3.8-4.5
		c-0.4-0.5-0.9-0.9-1.3-1.3c-1.5-1.4-2.1-3.2-2.1-5.3c0.1-10.5,1.8-20.8,4.7-30.8c3.3-11.4,7.4-22.4,12.9-32.8
		c1.9-3.5,3.9-7,7.3-9.4c0.2-0.1,0.3-0.3,0.4-0.4c0.9-0.9,1.6-2.4,3.1-2.5c2.1-0.1,4.4-0.2,6.4,0.8c1,0.6,2.1,1.4,2.7,2.4
		c2.3,3.8,5.9,6.4,9.2,9c1.8,1.4,3.6,2.7,5.3,4.1c4.1,3.2,7.2,7.2,9,12c0.9,2.5,1.8,5,2.5,7.5c0.9,3.1,1.2,6.2,0.8,9.5
		c-0.4,3.2-0.5,6.5-0.9,9.7c-0.5,3.8-1.9,7.2-3.9,10.5c-4.6,7.5-10.6,13.7-16.5,20.1c-2.8,3-6,5.7-9.4,8c-0.7,0.5-1.3,1-1.9,1.5
		c-3.7,2.8-7.8,4.4-12.5,3.7c-1.4-0.2-2.4,0.1-3.2,1.2C189.2,580.2,188.6,580.8,187.9,581.7z M196.1,547.8c1.9-0.5,3.3-1.1,4.5-2.3
		c3.3-3.1,6.7-6.2,10-9.2c0.6-0.5,1.2-1.1,1.6-1.8c1.9-3.1,3.8-6.1,5.4-9.3c2-4.2,3.3-8.6,2.6-13.4c-0.8-5.7-2.7-11.2-4.5-16.6
		c-0.3-0.9-0.9-1.7-1.6-2.3c-1.3-1.1-2.3-0.9-3.1,0.6c-1.2,2.2-2.6,4.5-3.5,6.9c-4.5,11.4-8.5,23-10.4,35.1
		C196.5,539.5,196,543.5,196.1,547.8z"/>
	<path class="st1" d="M390.4,581.8c-1.2-3.6-2.6-7.1-3.6-10.8c-0.9-3.4-3-6-5.6-8c-3.8-2.9-5.7-6.7-6-11.3c-0.2-2.3-0.1-4.6-0.1-6.9
		c0-0.3,0-0.7,0-1.1c-0.6,0-1,0-1.5,0.1c-5.9,1.4-11.7,2.8-17.6,4.1c-1.3,0.3-2,1-2.3,2.2c-1.7,6.5-3.4,13-5.1,19.5
		c-0.5,1.9-0.8,3.8-0.1,6.3c-0.9-0.9-1.5-1.4-2-2c-1.9-2.2-3.7-4.5-5.5-6.8c-0.5-0.6-0.9-1.4-1-2.2c-0.7-2.7-2.4-4.7-4.6-6.3
		c-2.4-1.7-3.3-4.1-3.6-6.9c-0.5-4,0.6-7.7,1.9-11.3c2.7-7.5,6.1-14.6,10.1-21.5c3-5.1,6-10.2,9.1-15.2c3.4-5.4,7.5-10.3,11.7-15.1
		c0.6-0.7,1.2-1.3,1.9-1.9c1.4-1.1,2.4-2.4,3-4s1.7-2.3,3.3-2.5c1.5-0.2,3-0.7,4.6-0.7c1,0,2,0.4,2.9,0.9c1.6,0.9,3.1,1.9,4.6,3
		c0.6,0.5,1.3,1.3,1.5,2c0.1,0.8,0.4,1.3,1,1.9c2.4,2.6,4.7,5.2,7.1,7.9c3.1,3.4,5.3,7.4,6.8,11.7c0.6,1.9,1,4,0.9,6
		c-0.2,4.2-0.8,8.5-1.3,12.7c-0.5,4.5-1,9-1.7,13.5c-1,7.2-1.6,14.4-3.4,21.5c-0.9,3.5-2.1,6.8-3.5,10.2c-1.1,2.7-1.2,5.5-1.2,8.4
		c0,0.8,0,1.6,0,2.4C390.7,581.8,390.5,581.8,390.4,581.8z M379.3,525.7c0.4-1.2,0.7-2.3,1-3.4c1.7-8,2.6-16,3.1-24.1
		c0-0.6-0.1-1.4-0.4-2c-0.3-0.9-1.1-1.2-1.9-0.8c-0.5,0.2-1,0.5-1.3,1c-1,1.3-2.1,2.6-2.9,4.1c-4.5,8.5-8.9,17-13.3,25.6
		c-0.2,0.4-0.3,0.9-0.4,1.2c0.8,0.6,1.5,0.3,2.2-0.1c3.7-1.8,7.6-2.4,11.6-2C377.7,525.4,378.4,525.6,379.3,525.7z"/>
	<path class="st1" d="M346,165.8c3.4,0.1,6.7,0.2,10,0.4c3.5,0.2,7,0.4,10.5,1.3c1,0.3,2.1,0.6,3.1,1c1.9,0.8,3.1,2.2,3.2,4.3
		c0,1.9,0.1,3.8-0.1,5.6c-0.3,2.1-1.9,3.3-3.9,3.5c-2.1,0.3-4.2,0.4-6.3,0.4c-7.2,0.2-14,2.1-21,3.8c-0.9,0.2-1.4,0.8-1.5,1.7
		c-0.7,4.1-1.5,8.1-2.2,12.2c-0.8,4.2-0.5,8.4-0.4,12.8c0.7-0.1,1.4-0.1,2-0.3c5.3-1.3,10.6-2.6,16-4c3.2-0.8,6.4-0.9,9.7-0.9
		c1.2,0,2.2,0.5,3.1,1.4c3.7,3.7,4.4,10-0.5,14c-1.4,1.1-3,2.2-4.6,3c-5.4,2.7-10.9,5.3-16.8,6.5c-2.4,0.5-4.7,0.6-7.1,0.4
		c-0.9-0.1-1.9,0-2.9,0c-0.1,0.6-0.2,1-0.4,1.5c-0.2-0.1-0.4-0.1-0.5-0.2c-2.1-2.7-4.7-5.1-7.3-7.3c-2.4-2.1-4.5-4.7-6.8-7
		c-3.9-3.8-5.6-8.6-6.5-13.7c-0.9-5.1-0.5-10.3,0.6-15.4c1.7-8.5,4.8-16.5,8-24.5c2.1-5.4,4.4-10.8,7.2-15.9
		c1.9-3.4,4.2-6.5,6.7-9.4c1.5-1.8,3.4-2.8,5.8-2.9c1.4-0.1,2.8-0.6,4.1-0.9c7.3-1.7,14.6-1.9,22-0.9c2.4,0.3,4.4,1.3,5.8,3.4
		c0.6,0.9,1.6,1.7,2.2,2.7c0.5,0.8,0.9,1.9,0.9,2.8c-0.1,1.4-0.4,2.8-1,4.1c-0.8,1.9-2.7,2.3-4.6,2.5c-4.8,0.4-9.6,0.6-14.4,1.2
		c-2.9,0.4-5.7,1.2-8.5,2c-0.5,0.1-1.1,0.7-1.2,1.2c-0.9,3.1-1.6,6.1-2.4,9.2C345.8,165.3,345.9,165.4,346,165.8z"/>
	<path class="st1" d="M440.4,182.3c-5.3-1.8-8.9-5.2-11.2-10c-1.8-3.8-2.9-7.9-3.9-11.9c-0.7-2.8-0.9-5.6-0.9-8.5
		c0-0.6-0.1-1.3-0.2-2.4c-1.8,1.5-3.3,2.8-4.7,4.1c-6.1,5.3-10.4,11.9-13.8,19.2c-2.8,6.1-5.4,12.2-6.8,18.9
		c-1.2,5.5-0.8,10.9,1,16.2c0.6,1.9,1.2,2.1,3.2,1.7c6.9-1.3,12.8-4.6,18.3-8.8c1.2-0.9,2.4-1.9,3.6-2.7c0.6-0.4,1.4-0.8,2-0.7
		c1.9,0.3,3.9,0.7,5.7,1.3c2.3,0.8,4,2.5,5.2,4.6c1.3,2.2,1.3,4.4-0.2,6.5c-3.9,5.5-8,10.8-14.3,13.9c-3.4,1.7-6.8,3.4-10.1,5.3
		c-2.9,1.7-5.9,1.8-9,0.9c-1.8-0.5-3.6-1.2-5.2-2.1c-2.4-1.4-4.7-3-7-4.4c-1.9-1.1-3.9-2.3-6-3c-5.2-1.8-8.6-5.2-10.2-10.5
		c-1-3.4-1.5-6.8-1.1-10.2c0.5-4.2,0.6-8.4,1.5-12.5c4.2-18.8,14.9-33.3,30.6-44.2c2.4-1.7,5-3.2,7.6-4.7c0.8-0.5,1.8-0.8,2.7-0.8
		c1.6,0,3.1-0.6,4.4-1.5c2.9-2,5.9-1.6,8.9-0.2c1.5,0.7,2.9,1.8,4.2,2.9c1.2,1,2.2,2.3,2.6,4c0.3,1.3,1.2,2.4,2,3.5
		c4.7,6.3,6.4,13.4,4.9,21.1c-0.9,4.7-2,9.4-3,14.1C440.9,181.7,440.6,181.9,440.4,182.3z"/>
	<path class="st1" d="M144.6,510.9c0.5,0.1,0.7,0.2,1,0.2c4.8,0.2,9.6,0.3,14.4,0.6c2.5,0.2,5,0.7,7.4,1.3c2.8,0.7,4.4,2.6,4.4,5.6
		c0,1.2,0.1,2.3,0,3.5c-0.2,3-1.2,4.5-5,5c-4.4,0.6-8.8,0.8-13.1,1.5c-4.2,0.7-8.3,1.9-12.5,2.8c-1.4,0.3-2.1,1.1-2.4,2.5
		c-1.6,6.7-2.5,13.5-2.3,20.3c0.1,1.7,0.1,3.3,0.1,5.3c1-0.2,1.7-0.2,2.4-0.5c3.7-1.3,7.4-2.6,11.1-3.9c4.4-1.6,8.8-2.6,13.5-2.4
		c1.8,0.1,3.1,0.6,4.3,1.9c3.2,3.5,3.8,9.8-1,13.5c-2,1.5-4.1,2.8-6.4,4c-2.9,1.5-5.9,2.7-8.9,3.9c-3.8,1.5-7.9,1.2-11.8,1.6
		c-1.3,0.1-2.7,0.3-4.1,0.4c-0.1,0.7-0.2,1.3-0.3,1.9c-0.3-0.2-0.5-0.3-0.6-0.4c-2.1-2.4-4.1-4.9-6.2-7.2c-1.9-2.1-4-4.1-6-6
		c-1.4-1.3-2.8-2.6-4.2-3.8c-2.1-1.8-3.1-4.2-3.4-6.9c-1-8.4-0.8-16.8,0.8-25.1c0.9-4.4,2.4-8.6,4-12.8c2.3-6.2,4.8-12.4,7.5-18.4
		c2.1-4.8,5-9.1,8.4-13.1c1.5-1.7,3.3-2.6,5.6-2.9s4.6-1.1,6.9-1.6c6.1-1.4,12.3-1.2,18.4-0.8c4,0.3,7.1,2.7,9.6,5.5
		c1.8,2,1.5,6.6-0.2,8.6c-0.8,0.9-1.7,1.2-2.9,1.2c-7.8,0.2-15.5,1.5-23.2,2.7c-2.6,0.4-2.8,0.7-3.4,3.3c-0.5,2.1-1,4.2-1.5,6.3
		C144.9,509.3,144.8,510.1,144.6,510.9z"/>
	<path class="st1" d="M474.8,235.4c-1.4-0.6-2-1.7-2.8-2.7c-2.5-3.2-4.9-6.5-7.5-9.6c-0.7-0.8-1.6-1.4-2.4-2.2
		c-1.3-1.4-2.7-2.9-3.9-4.4c-3-3.8-3.3-8.2-2.5-12.8c0.7-4.4,1.4-8.7,2.4-13c1-3.9,2.4-7.8,3.8-11.6c2.3-6.2,4.7-12.3,7-18.4
		c0.2-0.6,0.5-1.1,0.6-1.7c0.3-1.4-0.5-2.6-1.9-2.7c-1.7-0.1-3.4-0.1-5.1-0.2c-2.7-0.1-5.4-0.3-8.1-0.4c-1.1,0-2.2,0.1-3.2,0.1
		c-0.9,0.1-1.5-0.2-2-1c-1.6-2.3-1.6-4.7-0.8-7.2c0.7-2.2,1.5-4.4,2.3-6.5c0.8-2,1.4-2.3,3.6-2.4c2.2-0.1,4.3-0.5,6.5-0.8
		c8.5-1.2,17.1-2.1,25.7-1.7c3.2,0.1,6.5-0.3,9.7-0.4c2.2-0.1,4.5,0,6.7,0c1.8,0,3.7,0.2,5.5,0.1c5.1-0.2,9.6,1.7,13.9,4
		c3.6,1.9,4.3,5.3,3.5,8.7c-0.5,2.1-1.6,3.4-4.2,3.7c-5.6,0.8-11.1,1.5-16.8,1.7c-3.1,0.1-6.2,0.4-9.3,0.5c-0.5,0-0.9,0.1-1.4,0.2
		c-1.2,0.1-1.9,0.7-2.6,1.7c-1.8,2.8-3.2,5.6-4.2,8.8c-2.8,8.6-5.5,17.3-7.4,26.2c-1,4.6-1.5,9.2-2.1,13.9
		c-0.6,4.6-0.9,9.3-1.5,13.9c-0.3,2.3-0.8,4.5-1.2,6.8C474.7,229.2,473.2,232.2,474.8,235.4z"/>
	<path class="st1" d="M271,202.1c2.5-0.2,4.8-0.4,7.1-0.6c4.6-0.3,9-2.1,13.5-2.7c2.4-0.3,4.7-0.5,7.1-0.7c1.6-0.1,3.2-0.1,4.9,0
		c2.2,0.1,3.4,1.4,4.2,3.3c1.6,3.8,0.8,7.3-1,10.9c-2,4-5.6,5.8-9.4,7.3c-5.9,2.4-12,4.2-18.4,4.6c-3.1,0.2-6.2,0.3-9.3,0.4
		c-1.6,0-2.7,0.6-3,2.3c-0.2,1.3-0.7,2.6-1.1,4c-0.2-0.2-0.6-0.5-0.8-0.9c-0.6-1-1-2.1-1.7-3c-0.6-1-1.3-1.9-2.1-2.7
		c-2-2.2-4.2-4.2-6.3-6.4c-1.8-1.8-3.4-3.8-5.4-5.2c-3.8-2.7-4.5-6.4-4.2-10.6c0.5-8.1,3.2-15.8,5.9-23.3
		c4.4-12.3,11-23.4,18.2-34.1c1.3-2,2.7-3.9,4.2-5.7c1.2-1.4,2.7-2.6,4.2-3.8c1.6-1.2,3.4-1.2,5.1-0.1c0.9,0.5,1.8,1,2.6,1.5
		c1.9,1.1,2.9,2.7,2.9,5c-0.1,2.8-0.5,5.4-1.6,7.9c-4.6,10.6-9.1,21.3-11.5,32.7c-1.4,6.2-2.7,12.4-4.1,18.6
		C271.1,201.2,271.1,201.5,271,202.1z"/>
	<path class="st1" d="M214.6,175.7c1.1-0.2,1.6-0.3,2.2-0.4c5.4-1.1,10.9-2.1,16.5-2c1.3,0,2.7,0.3,4,0.4c1.3,0.1,2.4,0.8,2.9,1.9
		c1.1,2,2,4,2.8,6.1c0.3,0.8,0.2,1.9-0.1,2.7c-0.9,2.1-2,4.1-3.2,6.1c-0.5,0.8-1.4,1.4-2.2,2.1c-0.8-0.5-1.3-1-1.9-1.2
		c-1.5-0.7-2.9-1.4-4.5-1.9c-3.6-1-7.2-1.1-10.8-0.1c-2.3,0.7-4.5,1.3-6.8,2.1c-1.6,0.5-2.3,1.9-2.4,3.4c-0.2,3.8-0.5,7.6-0.4,11.4
		c0.1,7.1-0.4,14.2-2,21.2c-0.6,2.5-0.1,4.8,0.8,7.2c0.5,1.2,0.8,2.5,1.1,3.8c-0.1,0.1-0.2,0.2-0.4,0.2c-0.4-0.2-0.8-0.3-1.1-0.6
		c-0.7-0.8-1.5-1.6-2-2.6c-1.4-2.4-3.4-4.2-5.4-6c-2.6-2.4-5.1-4.8-7.7-7.3c-0.6-0.6-1.1-1.3-1.7-1.7c-4.5-3-5.8-7.4-5.5-12.6
		c0.5-7.5,1.8-14.9,3.7-22.2c1.8-7.1,3.9-14.1,6.1-21.1c0.9-2.8,2.1-5.4,3.4-8c3.1-6.7,6.2-13.4,10.3-19.6c0.3-0.4,0.5-0.8,0.8-1.2
		c0.7-1.2,1.8-1.7,3.1-1.3c1.9,0.6,3.8,1.3,5.7,2.2c1,0.4,1.9,0.6,2.9,0.4c4.8-0.9,9.7-0.7,14.6-0.6c4.3,0.1,7.8,2,10.9,4.8
		c2.5,2.3,2.6,4.9,0.1,7.2c-1.3,1.3-1.9,3-2.7,4.5c-1,1.9-1.7,2.2-3.4,1c-1.9-1.3-4-1.3-6.1-1.1c-4.4,0.5-8.7,1.2-13.1,1.9
		c-1.2,0.2-2.3,0.7-3.5,1.1c-0.4,0.2-0.9,0.7-1,1.1c-1.3,4.1-2.6,8.1-3.7,12.2C214.8,171.3,214.8,173.4,214.6,175.7z"/>
	<path class="st1" d="M440.4,577.8c-1.4-0.5-2-1.6-2.8-2.6c-2.6-3.4-5.2-6.7-7.9-10.1c-0.4-0.5-0.8-0.9-1.3-1.3
		c-2.4-1.7-4-4-5.5-6.5c-1-1.8-1.4-3.6-1.3-5.6c0.5-10.9,3.2-21.3,6.4-31.6c1.5-4.8,3.8-9.3,5.9-13.8c0.7-1.5,1.2-3.2,1.4-4.8
		c0.3-2-0.5-2.7-2.5-2.8c-2.4-0.1-4.9-0.1-7.3-0.2c-3-0.1-6.1-0.1-9.1-0.2c-1.2,0-2.3-1.4-2.5-3c-0.1-0.6,0-1.2,0.1-1.8
		c1.1-3.7,2.3-7.4,3.5-11c0.3-1,1.1-1,2-1.2c2.6-0.4,5.2-0.8,7.9-1.1c4.1-0.5,8.2-1,12.3-1.3c5.8-0.5,11.6-0.4,17.5,0.1
		c2.9,0.2,5.8,0,8.7,0.1c3,0.1,6.1,0.1,9.1,0.5c4.5,0.6,8.9,1.9,13,4c0.8,0.4,1.6,1,2.2,1.8c0.5,0.6,1,1.6,0.9,2.4
		c-0.2,1.9-0.8,3.7-1.3,5.5c-0.3,1-1.2,1.2-2.1,1.4c-2.9,0.5-5.8,1.1-8.6,1.3c-7,0.4-13.9,1.6-20.7,2.9c-0.6,0.1-1.4,0.6-1.8,1.1
		c-1,1.7-2,3.4-2.7,5.2c-3.3,9.5-6.2,19-8.4,28.8c-0.9,4-1.3,8-1.8,12c-0.7,5.6-1.1,11.2-1.8,16.8c-0.3,2.6-1,5.2-1.5,7.8
		C439.9,572.9,439.1,575.3,440.4,577.8z"/>
	<path class="st1" d="M487.9,62.8c-1.5-1.9-2-3.6-2.1-5.4c-0.2-2.6-0.9-5-2-7.2c-1.8-3.8-1.8-7.6-0.8-11.5c0.4-1.5,0.8-3,1.2-4.5
		c0.1-0.4,0.1-0.7,0.1-1.2c-1.1,0-1.6,0.8-1.9,1.4c-1.9,3.2-3.7,6.5-5.5,9.7c-1.2,2.2-1.8,4.6-2.1,7.2c-0.4,3-0.1,5.8,0.9,8.6
		c2.8,7.4,5.7,14.8,9.7,21.7c1.2,2,2,4.1,1.9,6.5c0,1.2-0.4,2.1-1.1,2.9c-0.5,0.6-1,1.1-1.6,1.6c-3,2.3-6,4.7-9.1,6.9
		c-1.7,1.2-3.6,2.2-5.5,3.1c-2.1,1-4.4,0.8-6.5-0.1c-3-1.2-5.9-2.5-8.3-4.9c-2.9-3-6-5.7-9-8.6c-1.2-1.2-2.2-2.5-3.5-3.9
		c-2.3,3.6-2.5,7.5-3.3,11.3s-1.2,7.6-1,11.6c-0.3-0.4-0.6-0.8-0.9-1.2c-2.8-4.5-4.2-9.5-5.2-14.7c-0.4-2-1-3.9-1.5-5.9
		c-0.9-3.1-1.1-6.2-0.5-9.4c2.1-11.2,6.1-21.7,11.2-31.9c1.3-2.6,2.4-5.3,3.6-8c2.2-4.8,4.5-9.6,6.7-14.4c0.7-1.6,1.3-3.3,1.9-4.9
		c0.5-1.5,1.1-2,2.5-1.8c2.5,0.4,4.9,1.1,6.8,2.8c1.5,1.4,1.8,2.4,1.1,4.3c-0.3,0.7-0.5,1.4-1,2c-3.5,4.9-5.8,10.4-8,15.9
		c-3.8,9.3-6.8,18.8-9.2,28.6c-0.7,2.7-1.4,5.3-1.7,8.1c-0.1,1.1,0.2,1.9,1,2.7c2.1,2.1,4.1,4.3,6.1,6.5c1.8,1.9,3.7,2.5,6.2,1.6
		c4.8-1.8,8.9-4.6,12.2-8.5c0.5-0.6,0.9-1.2,1.5-1.7c2.2-1.9,2.5-4.5,1.8-7.1c-0.5-2-1.3-4-2.1-5.9c-1.6-4-3.5-7.8-4.8-11.8
		c-1.9-5.6-1.9-11.3,0.1-17c1.4-4.1,3.5-7.8,6.2-11.1c2.4-3,4.8-6,7.7-8.7c1.3-1.2,2.6-2.2,4.5-1.9c2.4,0.4,4.7,1,6,3.3
		c0.3,0.5,0.6,1,0.9,1.6c2,4.9,4.3,9.7,6,14.7c1.5,4.5,0.8,9.1-1.9,13.2c-1.3,2.1-2.7,4.2-4.1,6.3C489.6,56.3,488.3,59.1,487.9,62.8
		z"/>
	<path class="st1" d="M213,58.8c-0.8-1-1-2.1-1-3.4c0.2-4.5-0.6-8.8-2-13c-0.8-2.4-0.6-4.9-0.2-7.4c0.3-1.7,0.5-3.3,0.7-5
		c0.1-1.1,0.1-1.1-1.2-1.9c-0.4,0.4-0.8,0.8-1.1,1.3c-5.3,7-7,14.8-5.1,23.4c0.9,4.2,2.4,8.2,4.1,12.1c1.8,4,3.4,8,4.9,12
		c1.7,4.5,1.4,9.2,0.8,13.9c-0.2,1.5-1.3,2.6-2.8,2.9c-4.9,0.9-9.8,1.9-14.8,2.6c-2,0.3-4.2,0-6.2-0.4c-2.6-0.5-4.8-1.8-6.3-4.1
		c-2.4-3.7-5.6-6.6-9.7-8.6c-0.1,0.5-0.3,0.9-0.4,1.3c-0.5,4.7-1.5,9.3-3.1,13.9c-0.4,1.2-0.4,2.6-0.6,4.1c-0.3-0.3-0.5-0.5-0.6-0.7
		c-1.4-3.3-2.9-6.6-4.3-9.8c-0.5-1.1-0.9-2.1-1.4-3.1c-2.1-4.4-4.4-8.8-4.2-13.8c0-0.6,0-1.2,0.1-1.8c1.4-6.6,2.2-13.4,4.8-19.7
		c1.1-2.8,1.6-5.9,2.7-8.7c1.4-3.8,3-7.5,4.8-11.2c3.3-6.5,6.3-13.2,8.9-20c0.2-0.4,0.4-0.9,0.6-1.3c0.6-1,1.6-1.3,2.6-0.9
		c2,0.9,3.2,2.7,4.5,4.3c0.3,0.4,0.2,1,0.1,1.6c-0.5,3.9-1.2,7.7-2.9,11.4c-2.6,5.5-4.1,11.3-5.6,17.2c-2.1,8.3-4,16.7-5.1,25.3
		c-0.6,5.2-0.6,5.4,3.5,8.5c0.5,0.4,1.2,0.6,1.9,0.5c2.6-0.2,5.1-0.4,7.7-0.9c3.8-0.7,6.8-3,9.5-5.6c0.7-0.6,1-1.8,1.2-2.7
		c0.4-2.7,0.6-5.3-0.3-8c-1.6-5.1-3.1-10.2-4.4-15.4c-1.7-6.6-1-13.1,2.4-19.1c2.5-4.6,5.3-9,8.1-13.4c2.4-4,7.9-3.3,10.6-1.1
		c2,1.7,3.3,3.8,3.4,6.5c0.1,3,0.6,5.9,2.1,8.6c0.7,1.4,1,3.1,1.3,4.7c0.9,6.2,0.3,12-3.4,17.3C215.8,53.4,214.5,56.1,213,58.8z"/>
	<path class="st1" d="M305.9,578c-0.2-0.4-0.5-0.7-0.7-1.1c-1.3-2.5-2.6-5-3.9-7.6c-0.4-0.8-0.9-1.7-1.3-2.5c-1.3-3-3-5.6-5.7-7.5
		c-3.3-2.3-4.4-5.8-4.8-9.7c-0.3-3,0.5-5.8,1.1-8.7c2.8-14,7.5-27.4,14.2-40.1c0.1-0.1,0.1-0.2,0.2-0.4c0.8-1.8,0.6-2.5-1.3-2.6
		c-2.4-0.1-4.7-0.1-7.1,0c-2.2,0.1-4.3,0.6-6.5,0.8c-2,0.2-4-0.8-3.1-3.5c0.2-0.5,0.1-1.1-0.1-1.5c-0.6-1.2-0.6-2.6-0.3-3.8
		c0.8-2.6,1.7-5.3,2.7-7.8c0.2-0.6,1.2-1.1,2-1.3c3.7-1,7.4-2.2,11.2-2.8c7.4-1.1,14.8-1.8,22.3-1.7c6,0,11.8,1.3,17.7,2.5
		c1.5,0.3,3,0.8,4.5,1c2.6,0.5,4.7,2.1,6.9,3.4c1.1,0.6,1.4,1.9,1.2,3c-0.5,4.4-2.8,8.8-8.9,9.6c-1.1,0.1-2.2,0.5-3.4,0.7
		c-2.5,0.3-5,0.6-7.5,0.8c-3,0.3-6,0.5-8.9,0.6c-1,0-1.2,0.7-1.5,1.4c-1.1,3-2,6-3.2,9c-4.2,10.7-7.8,21.7-9.9,33
		c-0.8,4.4-1.3,8.8-2,13.3c-0.9,5.3-1.9,10.7-2.8,16c-0.3,1.6-0.3,3.2-0.5,4.8c-0.1,0.8-0.1,1.5-0.2,2.3
		C306.3,577.9,306.1,578,305.9,578z"/>
	<path class="st1" d="M625,78.7c-0.4,1.2-0.8,2.2-0.9,3.1c-0.6,5.3-2.2,10.3-4.3,15.2c-1.2,2.8-1.6,5.7-1.9,8.7
		c-0.2,1.9-0.5,3.7-1.6,5.7c-0.7-0.9-1.3-1.5-1.8-2.3c-1.6-2.6-2.9-5.4-3.5-8.4c-1-4.6-2-9.3-2.9-13.9c-0.2-1.2-0.2-2.5,0.1-3.6
		c2.3-10.3,4.7-20.6,8.9-30.4c3.7-8.8,8-17.4,13.1-25.4c1.3-2,2.6-4.1,4-6.1c0.3-0.5,0.7-1,1.2-1.3c0.9-0.5,1.3-1.3,1.6-2.2
		c0.7-2.3,2.6-3.3,4.5-4.1c1.4-0.6,2.8,0.1,4,0.9c2.1,1.4,4.1,2.9,5.4,5.2c2,3.7,4.8,6.9,7.5,10.1c2.7,3.3,3.9,7.1,4.2,11.2
		c0.1,0.7,0,1.4,0.3,2c0.8,1.8,0.7,3.5-0.1,5.3c-3.3,7.2-7.7,13.8-14.3,18.4c-2,1.4-4.5,2-6.9,2.9c-1,0.4-2.1,0.7-3.3,1.1
		c2,15.3,6,29.5,15.3,41.9c-0.8,0.5-1.4-0.1-1.9-0.3c-5.3-2.8-9.7-6.7-13.7-11.1c-1-1.2-2.1-2.3-3.2-3.4c-4.9-4.8-7.6-10.8-9-17.4
		c-0.1-0.3-0.2-0.7-0.3-1C625.5,79.2,625.4,79.2,625,78.7z M633.2,51c0.2,0.1,0.3,0.2,0.5,0.4c0.7-0.3,1.4-0.5,2-0.8
		c1.9-1.1,3.8-2.4,5.7-3.5c5.5-3.3,7.3-8.8,8.7-14.6c0.3-1.2-0.2-2.3-0.9-3.2c-0.8-1.1-1.9-1.3-2.9-0.3c-1.1,1.1-2.3,2.2-3.1,3.5
		c-2.3,3.4-4.6,6.9-6.7,10.4c-1,1.7-1.8,3.5-2.5,5.3C633.6,49,633.5,50,633.2,51z"/>
	<path class="st1" d="M577.2,111.1c-0.5-0.9-0.9-1.8-1.4-2.7c-2.5-0.6-3.4-2-2.5-4.5c0.4-1.1,0.3-1.9,0-2.9c-1.4-5.5-3-11-4.1-16.5
		c-1.5-7.7-0.7-15.2,2.9-22.3c3.3-6.5,6.1-13.3,10-19.5c3.2-5.1,6.7-10,10.7-14.5c2.7-3,5.3-6.2,7.9-9.3c0.5-0.6,0.8-1.3,1.2-1.9
		c0.7-1.1,1.2-1.4,2.5-1.1c1.6,0.4,3.3,0.9,4.8,1.6c2.4,1.1,3.7,3.1,4,5.7s0.4,5.3,0.8,7.9c1.2,8.2,0.5,16.2-1.6,24.2
		c-2.2,8.2-4.8,16.4-8.2,24.2c-2.5,5.8-5.7,11.2-9.8,15.8c-3.1,3.5-6.8,6.4-10.2,9.6c-1,0.9-2.2,1.5-3.7,1.4c-0.6,0-1.2,0.3-1.7,0.5
		c-1,0.3-1.3,1-1.3,2c0,0.7,0,1.4,0,2.2C577.4,111,577.3,111,577.2,111.1z M606.8,33.7c-0.2-0.1-0.3-0.1-0.5-0.2c-0.8,1-1.6,2-2.3,3
		c-3.8,5.8-7.7,11.6-11.5,17.5c-2.8,4.5-5.5,9-8.1,13.6c-1.9,3.3-3.1,6.9-3.9,10.6c-0.4,1.7-0.5,3.4-0.8,5.1
		c0.1,0.1,0.3,0.2,0.4,0.2c1.3-1,2.7-2,4-3c4.3-3.4,7.7-7.8,11.2-12c2.7-3.2,4.7-6.8,6.3-10.6c2.3-5.9,4.2-11.9,5.3-18.1
		C607.3,37.8,607.2,35.8,606.8,33.7z"/>
	<path class="st1" d="M361.1,108.1c-0.4-1-0.7-2-1.1-3c-1.9-5.1-3.9-10.1-5.6-15.2c-2.2-6.4-1.7-12.8,0.2-19.2
		c1.2-4.1,2.5-8.2,4-12.1c1.3-3.3,2.8-6.6,4.3-9.8c0.4-0.9,1.3-1.7,2.2-2.8c0-2,1-4.2,2.2-6.4c3.5-6.7,7.8-13,10.7-20.1
		c0.6-1.5,1.5-2.9,2.3-4.3c0.8-1.3,1.8-1.5,3.1-0.8c2.1,1.1,3.8,2.4,4.8,4.7c2,4.4,4.3,8.6,6.5,12.9c2.7,5.2,2.8,10.7,2.3,16.3
		c-0.4,3.6-0.6,7.3-1.3,10.9c-0.8,4.7-2,9.4-3,14.1c-2,9.8-3.5,19.8-4.2,29.8c-0.2,2.4-0.1,4.9-0.1,7.3c0,0.6,0,1.2-0.4,1.8
		c-0.3-0.3-0.6-0.6-0.8-1c-0.6-1.6-1.4-3.3-1.7-5c-0.7-3.6-1.9-6.9-3.4-10.2c-2.4-5.6-4.2-11.3-3.6-17.5c0-0.2,0-0.4-0.1-0.7
		c-1.3-1-3-1.2-4.6-1.3c-1.9-0.1-3.9,0.1-5.9,0.2c-0.9,0.1-1.5,0.6-1.8,1.4s-0.7,1.5-0.7,2.3c-0.5,6.2-1.9,12.2-3.1,18.2
		c-0.5,2.4-1.1,4.9-0.8,7.4c0.1,0.6-0.1,1.3-0.1,2C361.4,108.1,361.3,108.1,361.1,108.1z M386,26.5c-0.8,1.6-1.2,2.9-1.9,4
		c-3,5.4-5.5,11.2-7.9,16.9c-1.6,3.6-2.5,7.4-3.3,11.3c-0.1,0.3,0,0.6,0,0.9c0.3,0.2,0.5,0.3,0.6,0.3c2.6,0.1,5.1,0.2,7.7,0.2
		c0.5,0,1.2-0.5,1.5-0.9c0.4-0.6,0.6-1.3,0.9-2c2.2-6.5,3.5-13.2,3.5-20.1C387,33.6,387,30.2,386,26.5z"/>
	<path class="st1" d="M290.8,83c-1.5,8.7-2.5,17.3-2.3,26.6c-0.5-0.7-0.8-1.1-1-1.4c-3.2-5.2-5.4-10.9-7.2-16.8
		c-1.4-4.8-2.1-9.6-1-14.6c1.2-5.3,2-10.7,3.1-16c1.2-5.5,3-10.7,5.4-15.7c3.5-7.4,7.1-14.7,10.8-22.1c0.8-1.5,1.6-3,2.6-4.4
		c1.9-2.7,4.8-3,7.3-0.8c1.5,1.3,2.9,2.7,4,4.3c4,5.5,6.5,11.7,7.1,18.5c0.2,2.3,0.5,4.6,0.8,6.8c0.2,2.3-0.4,4.5-1.3,6.5
		c-1.4,2.9-3.2,5.5-5.7,7.6c-3.5,3-7,6.1-11.4,7.8c0,0.7-0.1,1.2,0,1.8c0.6,6.3,1.6,12.5,3.5,18.5c1.1,3.6,2,7.2,3.2,10.7
		c1.3,3.8,2.9,7.6,4.4,11.4c0.2,0.6,0.5,1.2,0.5,1.9c-4.8-4.4-8-10-12.2-14.8C297.1,94.1,294.1,88.5,290.8,83z M298.4,49.8
		c1-0.6,1.7-1.1,2.5-1.5c3-1.9,5.1-4.4,6.4-7.8c1.2-3.2,1.6-6.4,1.6-9.7c0-0.9,0.4-2.1-0.9-2.4c-1.1-0.3-1.4,0.8-1.9,1.5
		c-3.1,5.5-5.8,11.2-7.9,17.1c-0.2,0.4-0.4,0.9-0.4,1.3C297.8,48.8,298.1,49.2,298.4,49.8z"/>
	<path class="st1" d="M532.3,233.5c-0.8-1.5-1.6-2.6-2.2-3.9c-0.7-1.4-1.6-2.4-2.8-3.5c-1.8-1.6-3.4-3.3-5-5
		c-2.2-2.2-4.2-4.6-6.7-6.5c-3.7-3.1-4-7-3.5-11.2c0.1-0.6,0.4-1.2,0.5-1.8c0.2-0.9,0.6-1.9,0.5-2.8c-1-4.3,1-8.1,2.2-12
		c0.6-2.1,1.2-4.2,2-6.2c1.3-3.4,2.5-6.9,4.2-10.1c4.2-7.5,8.7-14.9,13.2-22.2c2.4-3.9,5.1-7.5,8.9-10.2c2.7-1.9,3.9-2.1,6.7-0.4
		c0.2,0.1,0.5,0.3,0.7,0.4c3.6,1.4,4.9,4.1,4.2,7.8c-0.4,2.1-0.8,4.4-1.8,6.2c-2.1,3.7-3.5,7.6-5.1,11.5c-2.4,5.9-4.2,11.9-5.7,18
		c-1.5,6-3,11.9-4.2,18c-1.1,5.7-1.7,11.5-2.5,17.3c-0.3,2.4-0.6,4.9-1,7.2c-0.3,1.6-0.9,3.1-1.3,4.7
		C533.2,230.3,532.8,231.7,532.3,233.5z"/>
	<path class="st1" d="M497.9,575.9c-0.8-1.4-1.6-2.6-2.2-3.9c-0.7-1.4-1.6-2.4-2.7-3.5c-2-1.9-3.9-4-5.8-6c-1.7-1.7-3.3-3.4-5-5
		c-1.6-1.4-3.3-2.6-3.9-4.8c-0.7-2.7-1.1-5.3-0.2-8c0.6-1.9,0.8-3.8,0.6-5.8c-0.1-1.3,0-2.7,0.4-4c1.5-4.8,3-9.5,4.6-14.3
		c1.2-3.8,3-7.2,5-10.6c4.4-7.5,8.6-15.2,13.7-22.4c2-2.8,4.3-5.2,7-7.3c2.5-1.9,3.8-2,6.5-0.4c0.1,0.1,0.2,0.2,0.3,0.2
		c5.3,2.5,4.9,4.6,4.3,9.8c-0.1,0.9-0.4,1.8-0.8,2.5c-3,5-4.7,10.5-7,15.8c-4,9.4-6.4,19.3-8,29.3c-1.5,9-2.6,18-4,26.9
		c-0.3,2.1-0.9,4.2-1.5,6.3C498.9,572.5,498.4,574,497.9,575.9z"/>
	<path class="st1" d="M272.2,107c-0.3-0.6-0.8-1.2-1-1.8c-1.6-4.4-3.2-8.8-4.8-13.2c-1-2.6-1.9-5.2-2.9-7.8c-0.9-2.3-0.9-4.8-1-7.2
		c-0.1-2.2-0.3-4.4-0.5-7c-3.5,0.9-6.8,1.7-10,2.6c-0.4,0.1-0.9,0.8-1.1,1.3c-1.6,7.2-3.8,14.3-3,21.8c0.1,1.5,0.4,2.9,0.4,4.6
		c-0.5-0.8-1.2-1.5-1.6-2.4c-2.1-4.7-4.1-9.4-4.9-14.6c-0.4-2.7-1.1-5.5-1.3-8.2c-0.2-2.1,0-4.2,0.3-6.3c0.8-6.2,2-12.3,4.7-18
		c4.2-9,9.3-17.5,15.4-25.3c2.4-3.1,4.7-6.3,7.2-9.4c3.1-3.9,3.2-2.9,6.5-1.2c2,1,3,2.5,3.2,4.8c0.1,0.9,0.5,1.8,0.9,2.7
		c1.3,2.6,2,5.3,2.3,8.2c0.4,3.6,0.9,7.1,1.2,10.7c0.5,5.3-0.4,10.5-1.7,15.7c-1.9,7.3-4,14.5-5.5,21.8c-0.9,4.1-0.9,8.3-1.4,12.5
		c-0.3,2.8-0.8,5.6-1.1,8.4c-0.2,1.7-0.1,3.5-0.1,5.2c0,0.6,0.1,1.2,0.2,1.7C272.5,106.9,272.3,106.9,272.2,107z M256.4,55
		c0.6,0.1,1.2,0.3,1.9,0.2c2.6-0.2,5.3-0.5,7.9-0.8c0.4,0,0.9-0.3,1.2-0.6c2.6-3.2,4.6-6.8,5-11c0.3-3.4,0.1-6.8,0.1-10.2
		c0-1.3-0.4-2.6-1.3-4C264.7,36.6,259.5,45,256.4,55z"/>
	<path class="st1" d="M341.5,42.9c2.5,0.3,5,0.6,7.5,0.9c0.7,0.1,1.5,0.2,2.2,0.3c2.4,0.1,4.1,1.2,4.6,3.5c0.4,1.8,0.6,3.6,0.6,5.4
		c-0.1,2.9-3.2,5.2-6,4.3c-2.9-0.9-5.6-0.3-8.4,0.1c-3,0.5-5.9,0.9-8.9,1.2c-1.1,0.1-1.7,0.4-1.9,1.6c-0.7,4.5-1.6,9.1-2.3,13.6
		s-1.1,9.2-1.6,13.7c-0.2,1.5,0,1.9,1.5,2.4c0.7,0.2,1.5,0.4,2.2,0.3c2.4-0.2,4.8-0.5,7.1-1.6c1.3-0.6,2.6-1.2,3.9-1.7
		c2.2-0.9,4-0.1,4.8,2.2c0.4,1.1,0.8,2.3,1.1,3.5c0.9,3.3-0.5,7.3-3.4,9.1c-4.3,2.6-8.8,5-13.3,7.4c-1.6,0.9-2.2,0.7-3.3-0.8
		c-1.7-2.4-3.3-4.9-4.8-7.5c-1-1.8-1.6-3.7-2.5-5.6c-0.5-1.2-1.2-2.3-1.9-3.4c-2-3.3-3.5-6.7-2.9-10.7c1.8-13.1,4.4-25.9,8.9-38.3
		c2-5.5,3.9-11,5.9-16.4c0.7-1.8,1.7-3.4,2.5-5.1c0.2-0.4,0.3-0.9,0.4-1.3c0.2-0.7,0.5-1.4,0.6-2.1c0.6-2.5,2.2-3.6,4.7-3.6
		c0.7,0,1.4,0,2,0.3c1.1,0.7,2.1,0.7,3.3,0.4c3.4-1,7-0.7,10.5-0.7c2.1,0,4.2,0,6.3,0c1.6,0,2.6,0.8,2.9,2.3c0.3,1.3,0.5,2.7,0.6,4
		c0.1,4.3-3.7,6.9-7,7.1c-4.7,0.3-9.3,0.5-14,0.7c-1,0-1.6,0.4-2.1,1.3c-1.8,3.7-3.6,7.4-5.4,11.2c-0.7,1.4-0.1,2.2,1.5,2.2
		c1.3,0,2.6-0.1,3.9-0.2C341.4,43,341.4,42.9,341.5,42.9z"/>
	<path class="st1" d="M547.8,46c1.1-0.3,2.2-0.7,3.3-1c5.8-1.9,11.6-2.5,17.7-1.7c1.6,0.2,2.7,1,3.1,2.5c1,3.4,0.7,6.8-0.1,10.2
		c0,0.2-0.2,0.4-0.2,0.5c-1.2,2.3-2.9,2.8-5,1.2c-1.2-0.9-2.4-1.3-3.8-1.6c-2.8-0.6-5.5-0.5-8.3-0.1c-3.4,0.5-6.8,1.4-10,2.6
		c-1.7,0.6-2.9,1.6-3.2,3.5c-0.4,2.4-1,4.8-1.5,7.2c-1.6,7.9-3.5,15.7-6.1,23.4c-1.3,4-1.5,8.1-0.7,12.2c0.2,1.2,0.4,2.4,0.2,3.8
		c-0.5-1-1.1-1.9-1.5-2.9c-2.1-6.1-4.1-12.2-6.2-18.3c-1.8-5.3-1.7-10.7-1.1-16.1c0.6-5.4,2-10.5,4.3-15.4c2.6-5.3,5-10.7,7.7-15.9
		c1.8-3.4,3.8-6.8,5.8-10c1.9-2.9,3.6-5.9,4.9-9.1c0.7-1.6,1.6-3.2,2.2-4.8c0.4-1.1,1-1.4,2-1.2c1.4,0.4,2.9,0.6,3.9,1.4
		c1.3,1,2.4,0.9,3.7,0.4c2-0.7,4-1.5,6-1.9c2.2-0.5,4.5-0.7,6.8-1c2.3-0.2,4.6-0.2,6.9-0.5c3.1-0.3,5.5,1.7,5.5,5
		c0,2.2,0.6,4.5-0.2,6.7c-0.2,0.8-0.5,1.6-0.9,2.3c-0.8,1.4-1.8,1.5-3.4,1.2c-1.8-0.4-3.7-0.7-5.6-0.7c-5,0-10,0.4-15,1.3
		c-2.5,0.4-4.6,1.5-5.7,3.9c-1.7,3.5-3.5,7-5.3,10.5c-0.3,0.6-0.5,1.2-0.7,1.8C547.6,45.8,547.7,45.9,547.8,46z"/>
	<path class="st1" d="M254.6,577.9c-0.1-0.2-0.3-0.5-0.4-0.7c-0.6-2.1-2.2-3.5-3.7-4.9c-2.7-2.4-4.3-5.5-6.1-8.6
		c-0.5-0.8-1.1-1.5-1.6-2.4c-1.4-2.3-3-4.6-4-7c-1.1-2.9-1.2-6-0.5-9c0.8-3.8,1.9-7.5,3-11.2c4-13.4,9.7-26.2,16.2-38.5
		c2.4-4.5,5-8.9,7.5-13.3c1-1.7,2.2-3.1,4-3.9c1.4-0.6,2.8-0.6,4,0.4c1.1,0.9,2.3,1.6,3.4,2.6c1.6,1.4,1.9,2.7,1.1,4.7
		c-1.9,4.6-3.9,9.2-5.5,14c-3,8.8-5.9,17.6-7.9,26.7c-1.7,7.5-3.6,15-5.2,22.6c-1.2,6.1-2.1,12.3-3,18.5c-0.4,2.5-0.2,5.1-0.3,7.7
		c0,0.8-0.3,1.5-0.4,2.3C255.1,577.8,254.9,577.8,254.6,577.9z"/>
	<path class="st1" d="M360.4,449.1c-1.7,1.1-0.5,3.2-2,4.6c-0.3-0.6-0.6-1-0.7-1.5c-0.5-3.9-1-7.8-1.5-11.7c-0.4-2.8-0.5-5.7-1-8.5
		c-0.4-2.2-0.2-4.4,0.8-6.3c1.3-2.6,2.6-5.2,4.1-7.7c3.4-5.6,7.2-10.9,11.7-15.6c0.9-1,1.9-1.8,3.3-1.8c0.7,0,1.6,0.3,2.2,0.6
		c0.8,0.5,1.5,1.4,2.3,1.9c6,4,11.6,8.6,15.3,15c2.7,4.7,3.8,9.8,2.2,15.2c-0.4,1.3-1,2.5-1.8,3.6c-1.3,2-2.8,3.8-4.3,5.7
		c-0.5,0.6-1,1.1-1.6,1.5c-5,3-10.1,5.8-16.2,5.8c-2.4,0-4.9,0.2-7.3,0.3c-0.3,0-0.6-0.1-0.8,0C363,451.2,361.5,450.6,360.4,449.1z
		 M386.3,421.8c-0.1-0.9-0.1-1.5-0.2-2c-0.4-3.7-2.7-6.4-4.7-9.3c-0.6-0.9-1.5-0.8-2.5,0.1c-1.9,1.8-3.8,3.7-5.6,5.6
		c-5.2,5.4-7.7,12.2-10.2,19c-0.2,0.5-0.3,1-0.4,1.6c-0.4,2.2,0.8,3.4,2.9,2.5c2.6-1.1,5.2-2.4,7.6-3.9c2.5-1.5,4.8-3.4,7.1-5.1
		c2.1-1.6,3.7-3.7,5.1-6C385.9,423.4,386.1,422.4,386.3,421.8z"/>
	<path class="st1" d="M321.5,424.2c-0.3,0.5-0.6,1-0.9,1.5c-3.3,6.5-6,13.2-8.1,20.2c-0.8,2.6-0.9,5.3-1.2,8
		c-0.1,0.8-0.1,1.5-0.2,2.5c-1-0.5-1-1.2-1.2-1.8c-1.5-6.4-2.2-12.8-1.7-19.4c0.1-1.7,0.4-3.4,0.8-5c2-8.7,5.6-16.7,10.7-24
		c0.6-0.9,1-1.9,1.5-2.9c0.4-1,1.1-1.6,2.2-1.8c3.5-0.5,6.8,1.8,7.1,5.3c0.6,6.4,2.3,12.5,3.6,18.7c0.9,4.5,1.8,8.9,2.6,13.4
		c0.4,1.9,0.6,3.9,2.1,5.4c0.2,0.2,0.5,0.4,0.9,0.7c0.5-1.5,0.3-2.7,0.1-4c-1.5-11.2,1.1-21.5,7.3-31c1.3-2,2.8-4,4.1-6
		c1.2-1.7,2.5-2.3,4.1-1.9s2.5,1.6,2.7,3.6c0.6,5.6,0.6,5.6-2.3,10.5c-0.6,1.1-1.2,2.1-1.9,3.1c-3.6,5.6-6.1,11.8-8.3,18
		c-0.2,0.6-0.4,1.3-0.7,1.9c-1.4,3-1.9,6.2-2.2,9.4c-0.1,1.6-0.2,3.2-0.4,4.9c0,0.5,0,1.2-0.8,1.2c-0.4,0-1-0.5-1.1-0.9
		c-0.5-2.3-1.9-4.1-3.3-6c-1.5-2.1-2.5-4.6-4.5-6.5c-0.7-0.6-1.4-1.2-2.1-1.9c-1.2-1.2-2.5-2.3-3.4-3.7c-2-3-3.6-6.2-4.3-9.8
		C322.5,425.1,322.5,425.1,321.5,424.2z"/>
	<path class="st1" d="M264.8,452.8c-1.1-1.7-0.8-3.3-0.6-4.8c0.4-2.3,0.8-4.5,1.2-6.8c0.5-2.6,1.1-5.2,1.8-7.7
		c1.8-7,5.3-13,9.9-18.5c2.6-3,5.3-5.8,8.4-8.3c0.9-0.7,1.6-1.6,2.3-2.5c2.1-2.7,4-3.1,6.8-1.2c1.1,0.8,2.3,1.8,3,2.9
		c1.9,3.2,3.9,6.4,5.2,9.9c2.2,5.5,2.8,11.2,0.7,17c-1.9,5.4-4.1,10.6-6.9,15.6c-0.3,0.5-0.4,1.3-0.4,1.9c0.1,3.1,0.4,6.2,0.5,9.3
		c0,0.5,0,0.9,0,1.4c-0.8,0.2-1.2-0.2-1.4-0.8c-1.2-3-2.5-5.9-2.6-9.3c-0.2-4.3-0.7-8.5-1.1-12.8c0-0.5,0-1-0.1-1.4
		c-0.3-1.2-1.1-1.8-2.6-1.7c-2.8,0.2-5.5,0.6-8.3,0.9c-1.8,0.2-3.5,0.4-5.3,0.5c-2,0.2-3.5,1.2-4.3,3.2c-1.8,4.2-3.8,8.2-5.7,12.4
		C265.2,452.2,265.1,452.4,264.8,452.8z M294.1,415.3c0.1-0.9-0.4-1.5-1.2-1.7c-0.9-0.3-1.5-0.1-2.1,0.7c-1.9,2.4-3.9,4.7-5.9,7
		c-0.3,0.3-0.5,0.7-0.6,1c-0.5,1.4,0.1,2.3,1.6,2.1c1.1-0.2,2.1-0.5,3.2-0.6c1.4-0.2,2.2-1,2.7-2.2c0.7-1.6,1.3-3.3,2-4.9
		C293.9,416.2,294,415.8,294.1,415.3z"/>
</g>
<g class="st0">
	<path class="st1" d="M184.3,615.1l6.2,25.3c0.2,0.7,0.4,1.6,0.5,2.6h0.9c0.2-1,0.5-1.8,0.7-2.7l7.8-25.1H211l7.3,25.1
		c0.2,0.7,0.4,1.7,0.6,2.7h0.9c0.1-1,0.3-1.9,0.5-2.5l6.3-25.3h8.3l-10,40.2h-10.6l-7-23.4c-0.4-1.4-1-3.2-1.4-4.9H205
		c-0.3,1.6-0.9,3.5-1.4,5.1l-7.2,23.2h-10.6l-9.8-40.2H184.3z"/>
	<path class="st1" d="M273.7,635c0,13-7.3,20.9-17.9,20.9c-10.6,0-17.9-7.9-17.9-20.9c0-13.5,7.3-20.5,17.9-20.5
		S273.7,621.5,273.7,635z M255.1,624.7c-7.3,0-8.5,1.1-8.5,9.5v1.4c0,8.8,1.3,10.3,8.5,10.3h1.4c7.2,0,8.5-1.5,8.5-10.3v-1.4
		c0-8.5-1.3-9.5-8.5-9.5H255.1z"/>
	<path class="st1" d="M281.2,615.1h18.2c7.6,0,12.8,4.3,12.8,11.6c0,5.2-2.2,9.1-6.8,10v0.9c3.4,0.9,5.8,3.8,6.2,7.4l1.3,10.3h-8.2
		l-1.3-10.8c-0.3-2.6-0.7-2.9-3.5-2.9h-10.7v13.7h-8.1V615.1z M289.3,624.1v8.5h10.9c2.8,0,3.7-0.8,3.7-3.8v-1.4
		c0-2.6-1.1-3.3-3.4-3.3H289.3z"/>
	<path class="st1" d="M320.8,615.1h8.1v17.7h0.9c0.7-1,1.7-2.2,2.6-3.1l13.5-14.6h10.3l-14.8,16.3l16.4,23.9h-10.3l-9.3-13.5
		c-1.3-1.8-1.9-2.9-2.2-3.5h-0.9l-6.3,6.6v10.4h-8.1V615.1z"/>
	<path class="st1" d="M376.5,655.9c-9.6,0-16.1-5.3-16.1-14.4h8.1c0.4,4,2.2,4.8,7.1,4.8h2.3c5.3,0,6.8-0.8,6.8-2.8v-0.8
		c0-1.6-1.1-2.7-5.1-3.1l-5.8-0.7c-8.3-1-12.6-5.3-12.6-11.8c0-7.3,6.1-12.6,15.6-12.6c8.8,0,14.9,6.1,14.9,14.5h-7.8
		c-0.4-3.8-1.7-4.6-6.2-4.6h-2c-4.9,0-6.3,1-6.3,2.8v0.6c0,1.6,1.1,2.7,4.2,3.1l6.1,0.7c9.4,1,13.2,5.2,13.2,11.8
		C392.8,650.9,386.3,655.9,376.5,655.9z"/>
	<path class="st1" d="M400,615.1h8.1v15h17.5v-15h8.1v40.2h-8.1V640h-17.5v15.3H400V615.1z"/>
	<path class="st1" d="M476.9,635c0,13-7.3,20.9-17.9,20.9c-10.6,0-17.9-7.9-17.9-20.9c0-13.5,7.3-20.5,17.9-20.5
		C469.6,614.5,476.9,621.5,476.9,635z M458.3,624.7c-7.3,0-8.5,1.1-8.5,9.5v1.4c0,8.8,1.3,10.3,8.5,10.3h1.4c7.2,0,8.5-1.5,8.5-10.3
		v-1.4c0-8.5-1.3-9.5-8.5-9.5H458.3z"/>
	<path class="st1" d="M484.4,615.1h17.3c7.7,0,13.8,4.5,13.8,13c0,8.2-5.9,13.6-13.7,13.6h-9.2v13.7h-8.1V615.1z M492.5,624.1v8.5
		h9.7c4.2,0,4.9-0.8,4.9-3.8v-1.4c0-2.4-0.8-3.3-4.9-3.3H492.5z"/>
</g>
</svg>
